# xmcd
#
# Track frame offsets:
#	150
#	19800
#	38196
#	54625
#	70737
#	96387
#	111740
#	129648
#	147449
#	167053
#	182452
#	200838
#	218132
#	235845
#	256488
#
# Disc length: 3693 seconds
#
# Revision: 0
# Processed by: cddbd v1.4PL0 Copyright (c) Steve Scherf et al.
# Submitted via: audiograbber 1.80.04
#
DISCID=e80e6b0f
DTITLE=100% BLACK - Volumen V [CD 2)
DYEAR=1900
DGENRE=
TTITLE0=STREET SCRIPTURES 2 K (Ball wit us)
TTITLE1=ETERNAL (Wat' cha gonna do)
TTITLE2=DOWN LOW (La Serenisima)
TTITLE3=EMMI (Butterfly)
TTITLE4=ALL STAR (Killing me softly)
TTITLE5=BABE ALISHA (Taboo)
TTITLE6=GINUWINE (What's so diferent?)
TTITLE7=SAMANTHA MUMBA (Always come back to your love)
TTITLE8=CRISTAL (Doesn't my name)
TTITLE9=LIL BOW WOW feat SNOOP DOGG (that's my name)
TTITLE10=RAINBOX (What's goin' on the air)
TTITLE11=MON AMOUR (Show me love)
TTITLE12=KELLIS (Good stuff)
TTITLE13=MELANIE B (Tell me)
TTITLE14=MONTELL JORDAN (Unce upon a time)
EXTD=
EXTT0=
EXTT1=
EXTT2=
EXTT3=
EXTT4=
EXTT5=
EXTT6=
EXTT7=
EXTT8=
EXTT9=
EXTT10=
EXTT11=
EXTT12=
EXTT13=
EXTT14=
PLAYORDER=
